<svg width="26" height="49" viewBox="0 0 26 49" fill="none" xmlns="http://www.w3.org/2000/svg">
<path fill-rule="evenodd" clip-rule="evenodd" d="M2.29878 16.6543C2.2497 16.6576 2.20014 16.6531 2.15055 16.6487C2.13133 16.6469 2.1121 16.6452 2.0929 16.6439L2.08311 16.5695C2.10128 16.5633 2.11937 16.5565 2.13746 16.5497L2.13757 16.5496C2.18525 16.5317 2.23292 16.5138 2.28212 16.5066C2.30222 16.5037 2.34023 16.5551 2.35127 16.588C2.35648 16.6036 2.31909 16.653 2.29878 16.6543ZM1.9221 15.0192H1.58969L1.58083 14.9683L1.995 14.8252L1.74361 14.5853L1.89388 14.383L2.00969 14.7397L2.31409 14.7665L2.42104 14.5251L2.2917 14.3873L2.74586 14.2184C2.83678 14.3169 2.9027 14.4283 2.88041 14.5826C2.87634 14.6107 2.89586 14.6423 2.91539 14.6738C2.92434 14.6883 2.9333 14.7028 2.93998 14.7169L2.93894 14.7175L3.01548 14.7636C2.94157 14.899 2.84258 14.8792 2.73954 14.8586C2.69334 14.8493 2.64632 14.8399 2.60038 14.8443V15.181L2.56715 15.1893L2.44208 14.9872L2.38939 15.1053C2.36755 15.1033 2.34448 15.0991 2.32111 15.0948C2.26588 15.0848 2.20898 15.0745 2.16288 15.0922C2.12812 15.1056 2.10648 15.153 2.08448 15.2013C2.07458 15.223 2.0646 15.2449 2.05332 15.2639C1.90513 15.2547 1.89586 15.1574 1.9221 15.0192ZM1.8565 14.2455C1.72163 14.2664 1.68216 14.1887 1.6252 14.0638C1.64296 14.071 1.66007 14.0774 1.67642 14.0835C1.76676 14.1173 1.83366 14.1423 1.8565 14.2455ZM2.46228 16.6068H2.71076C2.63418 16.6474 2.59897 16.6661 2.56595 16.6628C2.53786 16.66 2.51135 16.6413 2.46228 16.6068ZM3.14535 15.5741L3.16107 15.7379L3.09786 15.7473L3.06714 15.589L3.14535 15.5741ZM3.18825 16.2543L3.10713 16.1404L3.14128 16.1122L3.23199 16.2163L3.18825 16.2543ZM2.55539 17.7505L2.43167 17.9111L2.61141 18.0369L2.6261 18.1636C2.78662 18.0969 2.75425 18.0042 2.72298 17.9146C2.7115 17.8817 2.70017 17.8492 2.69858 17.8186C2.79994 17.7713 2.84789 17.8304 2.89517 17.8886C2.9398 17.9436 2.98383 17.9978 3.07161 17.9611L3.07463 18.0157L2.83917 18.1646C2.92092 18.1532 2.97852 18.1993 3.03607 18.2453C3.10549 18.3008 3.17485 18.3562 3.28646 18.3107L3.21137 18.0692C3.33748 17.9826 3.35171 17.982 3.46749 17.9774L3.51525 17.9753C3.60929 17.9706 3.70823 17.9353 3.78998 17.888C3.8077 17.8778 3.80318 17.8291 3.79848 17.7785C3.79628 17.7548 3.79404 17.7307 3.79404 17.7099H3.51328C3.48235 17.7318 3.46221 17.7639 3.44265 17.7952C3.40661 17.8528 3.37256 17.9072 3.27677 17.8878L3.29677 17.6629L3.099 17.8274L3.08244 17.8067L3.26375 17.4502L3.39101 17.4829C3.40128 17.4705 3.41098 17.4563 3.42079 17.442C3.44352 17.4088 3.46682 17.3748 3.4989 17.3602C3.5281 17.347 3.56585 17.3527 3.61138 17.3595C3.63359 17.3629 3.65764 17.3665 3.68344 17.3683V16.783C3.58462 16.7763 3.5373 16.7732 3.49807 16.7537C3.46202 16.7358 3.43281 16.7041 3.37676 16.6433L3.37675 16.6433L3.59388 16.5949L3.44715 16.3719L3.63085 16.2939C3.62585 16.2742 3.6206 16.2547 3.61539 16.2353C3.60345 16.1908 3.59167 16.147 3.58326 16.1024C3.57938 16.0815 3.56344 16.064 3.54744 16.0463C3.51626 16.012 3.48485 15.9774 3.54212 15.9176C3.59186 15.8656 3.5629 15.8461 3.53545 15.8275C3.5156 15.8141 3.49653 15.8012 3.50859 15.777V15.3537C3.45617 15.3516 3.41314 15.3885 3.36985 15.4255C3.30288 15.4829 3.23527 15.5408 3.13129 15.4558C3.17773 15.3118 3.15378 15.2669 3.04204 15.3146C2.93624 15.3598 2.8696 15.313 2.79654 15.2618L2.79653 15.2618C2.77775 15.2486 2.75855 15.2351 2.73815 15.2228L2.94352 15.1582L2.8751 14.9259L3.11192 15.0964L3.18603 15.0032L3.18611 15.0031C3.25767 14.9133 3.32939 14.8233 3.39955 14.732C3.4118 14.716 3.41916 14.6962 3.42821 14.6718L3.42822 14.6718C3.43303 14.6589 3.43831 14.6446 3.44506 14.629L3.15753 14.4958L3.25094 14.2932L3.3981 14.309L3.29271 14.1787L3.38706 14.0329C3.26593 14.0285 3.20298 13.9543 3.1405 13.8807C3.08411 13.8142 3.02811 13.7482 2.93009 13.7344C3.01673 13.6985 3.09588 13.6788 3.17586 13.6742C3.39914 13.6612 3.44131 13.6196 3.45558 13.3891L3.45694 13.3641C3.45945 13.314 3.46212 13.261 3.48474 13.221C3.6145 12.9912 3.55181 12.775 3.45902 12.5549C3.43184 12.4905 3.40986 12.4141 3.41726 12.3468C3.43298 12.2026 3.46516 12.0599 3.49859 11.9183C3.50942 11.8723 3.53046 11.8282 3.5642 11.7951C3.71968 11.6427 3.71375 11.4956 3.60221 11.3181C3.51692 11.1825 3.43402 11.0258 3.41684 10.8712C3.38862 10.6172 3.31635 10.3943 3.15815 10.1957C3.12816 10.1581 3.10077 10.1069 3.09827 10.0607L3.09757 10.0476C3.08017 9.72248 3.06268 9.39584 3.25022 9.09506C3.21908 9.05489 3.18993 9.01124 3.16065 8.9674C3.09375 8.86723 3.0262 8.76608 2.9329 8.70328C2.79116 8.6081 2.76284 8.48698 2.74274 8.35285C2.71878 8.1932 2.78262 8.10884 2.93456 8.0474C2.9918 8.02422 3.04826 7.99934 3.1067 7.97359L3.10676 7.97357C3.13389 7.96161 3.16145 7.94947 3.18971 7.93722L3.16232 7.57845C3.17695 7.57327 3.1923 7.56912 3.2076 7.56498C3.24056 7.55607 3.27333 7.54721 3.29843 7.52815C3.30812 7.52085 3.31763 7.51318 3.32719 7.50547L3.32721 7.50545L3.33613 7.49826C3.33059 7.39588 3.32553 7.29342 3.32047 7.19096L3.32046 7.19079L3.32046 7.19076C3.31467 7.07371 3.30889 6.95665 3.30239 6.83968C3.28125 6.45685 3.22428 6.08049 3.08942 5.72026C3.03537 5.57561 3.01611 5.44117 3.05474 5.28475C3.08901 5.14603 3.12108 4.96837 3.06287 4.85443C2.98049 4.69312 2.92311 4.12691 2.93738 4.07869L2.93036 4.07802C2.92343 4.07737 2.91647 4.07673 2.91009 4.07556C2.9051 4.06317 2.89938 4.05157 2.8939 4.04047C2.88282 4.018 2.87274 3.99758 2.87177 3.97673C2.86265 3.77937 2.76281 3.62294 2.66336 3.46712L2.66336 3.46712C2.62879 3.41296 2.59426 3.35886 2.56361 3.30315C2.52768 3.23785 2.43937 3.1685 2.36887 3.16131C2.2048 3.14463 2.12677 3.04241 2.03347 2.92018L2.00344 2.88107L2.11949 2.85445C2.19077 2.83801 2.25468 2.82327 2.31878 2.80963C2.36467 2.79989 2.41067 2.79059 2.45666 2.7813L2.45668 2.78129C2.51546 2.76942 2.57422 2.75754 2.63276 2.74475C2.62218 2.73018 2.61177 2.7154 2.60135 2.70059C2.53625 2.60809 2.47056 2.51476 2.35564 2.46763C2.32534 2.45513 2.29483 2.40212 2.29368 2.36692C2.28889 2.22237 2.19089 2.19488 2.06415 2.19561L2.07062 2.16617C2.09772 2.04438 2.12639 1.91552 1.98594 1.88912C1.85629 1.86475 1.81828 1.78623 1.77954 1.68709L1.54595 1.7754L1.56448 1.52921L1.25737 1.34873C1.19871 1.38763 1.13715 1.42746 1.074 1.46831C0.961144 1.54133 0.843247 1.6176 0.727919 1.69761C0.616825 1.77472 0.508228 1.8554 0.391388 1.9422L0.391379 1.94221C0.337797 1.98202 0.282481 2.02311 0.224397 2.06575C0.220582 2.08194 0.215395 2.10117 0.209597 2.12267C0.194026 2.18041 0.174049 2.25449 0.164411 2.32985C0.154284 2.4096 0.150088 2.49009 0.14589 2.5706C0.142792 2.63001 0.139694 2.68943 0.13421 2.7486C0.131776 2.77501 0.131102 2.80201 0.130427 2.82905C0.127837 2.93277 0.12523 3.03715 0.0233002 3.11132C0.0172082 3.11576 0.0181773 3.13025 0.0191074 3.14415C0.0194652 3.1495 0.0198173 3.15476 0.0197594 3.15933C0.0184368 3.23559 0.0142661 3.31224 0.0100952 3.38888C0.000801859 3.55966 -0.00849209 3.73045 0.0137192 3.89707C0.0406268 4.09921 0.0444562 4.30266 0.0482831 4.50598C0.0527505 4.74333 0.0572145 4.98049 0.0983859 5.21518C0.107238 5.26558 0.114007 5.34848 0.109425 5.39941C0.102884 5.47212 0.09428 5.54488 0.0856777 5.61762L0.0856768 5.61763C0.066067 5.78345 0.0464643 5.94922 0.0513142 6.11433C0.0527227 6.16243 0.0641311 6.21024 0.0756892 6.25868C0.0940404 6.33559 0.112769 6.41408 0.0924499 6.49778C0.0875087 6.51799 0.108724 6.54504 0.129322 6.57131L0.129326 6.57131C0.13738 6.58158 0.145338 6.59173 0.151602 6.6013C0.16054 6.61498 0.172476 6.62862 0.184342 6.64219C0.20787 6.66908 0.231128 6.69566 0.230229 6.72168C0.224084 6.90518 0.316666 6.97048 0.509222 6.93913C0.493808 6.97659 0.530921 7.10165 0.577904 7.25997C0.65186 7.50917 0.750274 7.84079 0.706778 8.04292C0.632317 8.38898 0.653354 8.7164 0.748122 9.04872C0.761452 9.09506 0.773324 9.15015 0.761036 9.19431C0.664405 9.54179 0.697644 9.89357 0.730485 10.2411C0.734879 10.2876 0.739265 10.334 0.743332 10.3804C0.776657 10.7587 0.842786 11.1373 0.999727 11.4939C1.02954 11.5617 1.01902 11.649 1.00884 11.7334C1.00579 11.7587 1.00277 11.7837 1.00087 11.8079C0.997453 11.8515 0.985479 11.8945 0.971652 11.9441L0.971648 11.9441C0.964839 11.9685 0.957582 11.9946 0.950677 12.0231L1.0619 12.0937C1.05312 12.2189 1.02474 12.3369 0.996982 12.4522C0.945387 12.6667 0.895978 12.8722 0.978795 13.0975C1.01519 13.1964 1.01895 13.3066 1.02275 13.4174C1.02524 13.4903 1.02774 13.5634 1.03951 13.6338C1.05388 13.7201 1.10179 13.8048 1.15031 13.88C1.20211 13.9603 1.26049 14.0362 1.32154 14.1156L1.32158 14.1157C1.34841 14.1506 1.37575 14.1862 1.40327 14.2231C1.23018 14.3224 1.27563 14.4421 1.32159 14.5632L1.32159 14.5632C1.3301 14.5856 1.33863 14.6081 1.34579 14.6305C1.20072 14.7143 1.12345 14.855 1.19572 14.9859C1.22059 15.0309 1.22876 15.0842 1.23693 15.1375C1.25204 15.2359 1.26713 15.3344 1.38755 15.3806C1.40391 15.3869 1.40928 15.4291 1.41329 15.4608L1.41463 15.4711C1.41672 15.4866 1.42192 15.5024 1.42711 15.5183C1.44384 15.5694 1.46059 15.6204 1.3738 15.6597C1.3595 15.6662 1.35959 15.6973 1.35969 15.7328C1.3598 15.768 1.35991 15.8076 1.34589 15.8315C1.28132 15.9421 1.32246 15.9799 1.429 15.9925C1.45509 15.9956 1.48131 15.9979 1.51885 16.0012L1.51896 16.0012L1.59208 16.0076C1.55826 16.0264 1.51655 16.0334 1.4771 16.0399H1.47709C1.3861 16.055 1.30717 16.0681 1.36485 16.2204C1.50939 16.2044 1.6605 16.1971 1.81984 16.2975L1.55501 16.4149C1.71397 16.5131 1.76002 16.5415 1.78691 16.5825C1.79788 16.5993 1.80566 16.6181 1.81661 16.6446L1.46659 16.7351L1.49742 16.8821C1.48751 16.8789 1.47859 16.8756 1.4703 16.8725C1.4535 16.8664 1.4393 16.8611 1.42473 16.8592C1.40904 16.8572 1.3929 16.8586 1.37718 16.8599L1.37709 16.8599C1.37019 16.8605 1.36338 16.8611 1.35672 16.8614C1.34287 16.9742 1.36193 17.1249 1.44514 17.201C1.47191 17.2254 1.49509 17.2553 1.51842 17.2855C1.5753 17.3589 1.63305 17.4334 1.7459 17.4324L1.74163 17.4255C1.84906 17.4421 1.85683 17.5145 1.86498 17.5904C1.87053 17.6421 1.87626 17.6955 1.91388 17.734C1.97031 17.7276 2.02789 17.712 2.08587 17.6964C2.24455 17.6535 2.4062 17.6099 2.55539 17.7505ZM2.94896 26.7974L2.95364 26.7987L2.95458 26.7955L2.94896 26.7974ZM3.20523 26.6909L3.19929 26.6977L3.20512 26.6908L3.20523 26.6909ZM14.1295 46.0211C14.1498 46.1007 14.17 46.1494 14.2005 46.1781C14.2309 46.1562 14.2612 46.1343 14.2915 46.1125C14.3849 46.1372 14.4779 46.1619 14.5683 46.1859C14.5709 46.1858 14.5731 46.1857 14.5758 46.1855C14.5757 46.1863 14.5757 46.187 14.5756 46.1879C14.6866 46.2172 14.7931 46.2455 14.8886 46.2709C14.9715 46.6665 14.9715 46.6665 14.8159 46.8835C14.7346 46.8409 14.6674 46.7946 14.6093 46.746C14.6121 46.8653 14.597 46.9843 14.5338 47.104C14.1439 46.832 14.0327 46.3476 13.7268 45.9947C13.8056 45.9254 13.8577 45.8797 13.9314 45.8149C13.8269 45.7688 13.7468 45.7335 13.6463 45.6891C13.6787 45.6425 13.7175 45.6033 13.745 45.5635C13.7391 45.5629 13.7332 45.5623 13.7272 45.5616C13.7359 45.5585 13.7442 45.5555 13.7527 45.5524C13.782 45.5057 13.793 45.457 13.7551 45.3928C13.7507 45.3853 13.7819 45.345 13.8139 45.3205C13.8373 45.315 13.8624 45.3103 13.8887 45.306C13.9196 45.3148 13.9526 45.3348 13.9662 45.3568C13.9837 45.3851 14.0014 45.4189 14.0133 45.4527C14.2081 45.3699 14.3582 45.2716 14.3919 45.0969C14.3992 45.0584 14.6009 45.0347 14.7033 45.0067C14.7927 45.3462 14.8703 45.6411 14.9518 45.9509C14.4753 45.984 14.3664 45.8133 14.2976 45.6209C14.2011 45.6108 14.1089 45.6012 14.0187 45.592C14.0074 45.7483 14.0931 45.8789 14.1295 46.0211ZM12.4091 16.1547C12.4929 16.1678 12.5881 16.1092 12.6847 16.0816C12.6242 15.9763 12.58 15.9035 12.5418 15.8277C12.5371 15.8182 12.564 15.7928 12.5818 15.7665C12.6252 15.8157 12.6609 15.8563 12.6963 15.8966C12.8838 15.7438 12.8827 15.7451 13.0518 15.888C13.1153 15.9417 13.1842 15.9548 13.252 15.8883C13.3241 15.8177 13.398 15.7491 13.4722 15.6786C13.4331 15.6582 13.3979 15.6398 13.356 15.6179C13.3811 15.565 13.4038 15.5167 13.4156 15.4916C13.3423 15.3889 13.2834 15.3062 13.2253 15.2246C13.1753 15.2523 13.1241 15.2808 13.0409 15.327C13.0786 15.1659 13.1072 15.0443 13.1435 14.8892C13.228 14.9899 13.2956 15.0704 13.3957 15.1897C13.4031 15.0376 13.496 14.9994 13.5852 14.9609C13.5876 15.2187 13.5899 15.4764 13.5897 15.7341C13.5894 15.9342 13.5883 16.1343 13.5871 16.3345L12.4091 16.1547ZM12.6614 36.0205C12.6489 36.0135 12.6368 36.0064 12.6235 35.9995C12.6403 35.9958 12.6548 35.9915 12.6699 35.9874C12.667 35.9985 12.6645 36.0094 12.6614 36.0205ZM13.7104 35.8168C13.777 35.8092 13.8416 35.8018 13.9212 35.7926C13.9085 35.7763 13.8965 35.761 13.8846 35.7457C13.842 35.6905 13.7919 35.6362 13.7617 35.5798C13.7531 35.5637 13.804 35.5247 13.8246 35.5252C14.0172 35.529 14.0061 35.4811 14.0064 35.4192C14.0066 35.382 14.0833 35.3448 14.1555 35.2813C14.2225 35.3558 14.2685 35.4069 14.3356 35.4813C14.3907 35.4329 14.4238 35.3985 14.4676 35.367C14.5089 35.3371 14.5615 35.3102 14.5776 35.3006C14.4511 35.2246 14.3257 35.1589 14.2289 35.086C14.1946 35.0603 14.1977 35.0013 14.24 34.9849C14.3395 34.9462 14.4727 34.902 14.5924 34.9019C14.6219 34.9019 14.6518 34.907 14.6826 34.9145C14.7476 35.7722 14.8213 36.6297 14.883 37.4875C14.8899 37.5824 14.8348 37.6856 14.7709 37.7743C14.6735 37.9096 14.5433 38.0356 14.4073 38.1876C14.3752 38.1959 14.3405 38.2048 14.3049 38.2141C14.3164 38.1087 14.265 38.0026 14.1154 37.8912C14.0424 37.837 14.0663 37.7317 14.0488 37.662C14.3095 37.5514 14.6721 37.5888 14.7401 37.3672C14.667 37.3797 14.5942 37.3979 14.5205 37.3994C14.2847 37.4039 14.0208 37.4529 13.9127 37.2453C13.8082 37.0447 13.8825 36.8713 14.1349 36.7495C14.2425 36.6977 14.335 36.6335 14.4436 36.5694C14.2936 36.4528 13.8893 36.5796 13.9514 36.3531C13.9827 36.239 14.1264 36.1371 14.2599 35.9828C14.0644 35.9553 13.8834 35.93 13.6989 35.904C13.7028 35.875 13.7065 35.8459 13.7104 35.8168ZM14.3199 22.9907C14.5476 22.5676 14.8005 22.2785 15.013 22.0867C15.0249 22.076 15.0363 22.0632 15.0478 22.0514C15.0344 22.0134 15.0203 21.9739 15.0053 21.9317C15.0384 21.9554 15.0677 21.9764 15.097 21.9973C15.1309 21.9568 15.163 21.9115 15.1936 21.8636C15.2081 21.9463 15.2148 22.0303 15.19 22.1188C15.0332 22.6784 15.0541 23.2572 14.9897 23.8277C14.9749 23.9589 14.9088 24.0879 14.8667 24.2165C14.544 24.2145 14.4153 24.1287 14.387 23.9857C14.3545 23.8219 14.3335 23.6566 14.3247 23.4916C14.3158 23.3248 14.321 23.1577 14.3199 22.9907ZM15.1592 21.6863C15.1678 21.7378 15.1798 21.7892 15.1896 21.8409C15.1405 21.8471 15.0831 21.8542 15.0071 21.8638C15.0788 21.7842 15.1191 21.726 15.1592 21.6863ZM14.7301 42.704C14.7462 42.6922 14.7621 42.6805 14.7795 42.6676C14.8326 42.7859 14.8772 42.8617 14.9009 42.9339C14.8178 42.8612 14.7635 42.7846 14.7301 42.704ZM14.8823 43.516C14.8054 43.3745 14.7691 43.2442 14.9296 43.153C14.9283 43.2738 14.9053 43.3949 14.8823 43.516ZM13.2695 37.307C13.2125 37.2338 13.2585 37.1454 13.2585 37.0599C13.3841 37.0206 13.4575 36.9952 13.4849 36.9688C13.4534 37.1048 13.4112 37.2403 13.3708 37.3753C13.358 37.4176 13.253 37.4495 13.1202 37.4924C13.1707 37.4289 13.3353 37.3915 13.2695 37.307ZM13.4937 36.9302C13.4805 36.9022 13.4307 36.8676 13.3474 36.8149C13.4112 36.8132 13.4648 36.8114 13.5156 36.8101C13.5095 36.8501 13.5023 36.8902 13.4937 36.9302ZM13.6885 39.3991C13.6638 39.3897 13.6389 39.3807 13.6153 39.3714C13.6286 39.3613 13.6427 39.3508 13.6563 39.3405C13.6669 39.3598 13.6777 39.3794 13.6885 39.3991ZM14.8397 43.8325C14.7309 43.7875 14.6234 43.7403 14.5107 43.7005C14.4824 43.5873 14.4319 43.4784 14.3574 43.3756C14.5279 43.418 14.6519 43.5622 14.869 43.5878C14.8543 43.6693 14.8424 43.7508 14.8397 43.8325ZM14.8254 41.2276C14.7392 41.3082 14.6459 41.3955 14.5519 41.4832C14.5078 41.473 14.4637 41.4628 14.4196 41.4526C14.433 41.3768 14.4076 41.2857 14.4662 41.228C14.8312 40.8688 14.8373 40.7501 14.4468 40.4105C14.3305 40.3094 14.2022 40.2137 14.0096 40.0597C13.9421 40.3288 13.8901 40.5365 13.832 40.7681C13.7042 40.8013 13.5661 40.8371 13.4444 40.8686C13.4563 40.7597 13.535 40.6515 13.6428 40.5392C13.7842 40.3918 13.7343 40.2447 13.5496 40.1239C13.6006 40.0905 13.6555 40.0564 13.7023 40.0203C13.6427 40.0128 13.5704 40.0036 13.5009 39.9949C13.5209 39.9079 13.5408 39.8211 13.5647 39.7171C13.5998 39.7054 13.6717 39.6814 13.7646 39.6504C13.6831 39.6377 13.6333 39.63 13.5596 39.6186C13.611 39.5653 13.6634 39.511 13.7185 39.4538C13.7876 39.5798 13.8602 39.712 13.9401 39.8575C13.9934 39.8173 14.0438 39.7794 14.0931 39.7422C14.1689 39.8804 14.2416 40.013 14.3161 40.1487C14.3366 40.1475 14.3575 40.1461 14.3781 40.1449C14.324 40.0384 14.3404 39.9372 14.4195 39.8282C14.4513 39.7843 14.4606 39.7094 14.4519 39.6532C14.441 39.582 14.4349 39.5292 14.4343 39.4851C14.4714 39.4572 14.5084 39.4294 14.5455 39.4014C14.5774 39.592 14.5741 39.9009 14.535 40.135C14.6225 40.1295 14.7166 40.1236 14.8254 40.1168V41.2276ZM14.3894 44.3523C14.3626 44.3048 14.3378 44.2638 14.3278 44.2241C14.3421 44.1694 14.3573 44.124 14.3768 44.0862C14.3815 44.0816 14.3849 44.0772 14.3903 44.0724C14.4088 44.0564 14.4217 44.0338 14.4331 44.0093C14.4576 43.9856 14.4874 43.9659 14.5243 43.9489C14.528 43.9607 14.5322 43.9727 14.5348 43.9842C14.5359 43.9706 14.5353 43.9573 14.5357 43.9437C14.6067 43.9134 14.7035 43.8915 14.8396 43.8696C14.8401 43.993 14.8639 44.1162 14.9373 44.2393C14.9553 44.2692 14.9168 44.3134 14.9002 44.3502C14.8114 44.5466 14.7876 44.5507 14.3883 44.4416C14.4211 44.3827 14.4483 44.3239 14.4703 44.2657C14.448 44.2951 14.4221 44.324 14.3894 44.3523ZM9.13335 2.23657C9.06045 2.32488 8.97183 2.3129 8.89289 2.24219C8.67076 2.04359 8.37229 2.00225 8.11756 1.86864C7.9374 1.77418 7.71058 1.7721 7.50865 1.7143C7.40805 1.68545 7.31349 1.62963 7.22195 1.57631C7.10916 1.5107 7.00221 1.43489 6.89234 1.36324C6.92129 1.31846 6.95441 1.25962 6.99544 1.20703C7.01106 1.18714 7.04387 1.17495 7.07053 1.17089C7.10854 1.16506 7.1679 1.18683 7.18394 1.16787C7.31588 1.01229 7.47105 1.10841 7.59686 1.14861C7.71933 1.18776 7.88168 1.18735 7.95177 1.34127C7.96281 1.36564 8.00613 1.38761 8.03581 1.38928C8.37354 1.40865 8.61171 1.66181 8.91507 1.76418C9.00776 1.79543 9.07805 1.89759 9.15439 1.97153C9.25145 2.06567 9.19896 2.15711 9.13335 2.23657ZM8.94423 43.1299C8.88664 43.1912 8.85759 43.3848 8.70617 43.2621C8.74324 43.0962 8.7773 42.9442 8.81656 42.7688C9.01547 42.9728 9.04213 43.0254 8.94423 43.1299ZM8.66024 42.6594C8.65795 42.6382 8.65555 42.6171 8.65326 42.5959C8.70408 42.5904 8.7549 42.5849 8.80573 42.5795C8.80822 42.5917 8.81072 42.6038 8.81322 42.616C8.76219 42.6305 8.71127 42.645 8.66024 42.6594ZM8.50642 34.4934C8.35334 34.5176 8.35053 34.2999 8.16692 34.3967C8.16536 34.399 8.13193 34.4479 8.0985 34.4968C8.08622 34.3354 8.00769 34.1638 8.23191 34.0817C8.29241 34.0595 8.3173 33.9398 8.36552 33.8522C8.50517 33.8972 8.51122 34.0036 8.49664 34.1394C8.42665 34.1442 8.37333 34.148 8.32595 34.1513C8.27606 34.2645 8.54683 34.4091 8.75386 34.3974C8.73397 34.4815 8.73022 34.4579 8.50642 34.4934ZM8.00519 30.6913C7.98634 30.7967 7.94146 30.8111 7.73505 30.7692C7.75088 30.5765 7.81003 30.4887 7.90241 30.5184C7.98041 30.5434 8.02071 30.6041 8.00519 30.6913ZM7.91824 27.9595C7.86825 27.9753 7.80816 27.9943 7.73943 28.0161C7.75525 28.0698 7.76869 28.1153 7.7841 28.1679C7.76484 28.1784 7.74505 28.1985 7.72537 28.1983C7.64653 28.1975 7.5678 28.1885 7.48886 28.1863C7.43627 28.1849 7.3892 28.1955 7.40482 28.2661C7.34556 28.2195 7.28631 28.1728 7.22705 28.1262C7.22965 28.1079 7.23226 28.0895 7.23476 28.0712C7.3389 28.108 7.41076 28.0826 7.45054 27.9957L7.44481 28.0021C7.43887 27.85 7.2961 27.9165 7.2257 27.8794C7.22736 27.8578 7.22486 27.8467 7.22903 27.8426C7.27069 27.8026 7.31328 27.7638 7.36733 27.7138C7.39899 27.7306 7.43242 27.7512 7.46803 27.7666C7.66194 27.8502 7.67788 27.8409 7.71297 27.6291C7.82347 27.7077 7.97187 27.7615 7.91824 27.9595ZM7.25829 24.9711C7.15353 24.9606 7.03345 24.9486 6.91327 24.9365C6.90869 24.9243 6.90411 24.912 6.89953 24.8999C6.9894 24.8684 7.07917 24.8371 7.19123 24.7979C7.13239 24.7595 7.09104 24.7325 7.03189 24.694C7.16644 24.6099 7.26485 24.6195 7.36046 24.7313C7.32421 24.8162 7.2937 24.8879 7.25829 24.9711ZM7.4144 30.7172C7.51771 30.6689 7.59248 30.6272 7.59071 30.7974C7.53906 30.7738 7.48751 30.7504 7.4144 30.7172ZM25.674 6.10572C25.5897 5.88734 25.3221 5.9066 25.0871 5.88473C25.0138 5.87796 24.9394 5.88786 24.8654 5.89223C24.9576 5.67947 25.3138 5.75716 25.5852 5.67635C25.5756 5.60512 25.6112 5.50316 25.5446 5.4412C25.2675 5.1823 25.5086 4.73387 25.5086 4.73387C25.5392 4.55433 25.537 4.55496 25.4683 4.38781C25.4536 4.35209 25.4464 4.31314 25.4463 4.2745C25.3377 4.19827 25.242 4.10892 25.1057 3.99884C25.2291 3.92594 25.3458 3.8569 25.4659 3.78598C25.4684 3.72683 25.4716 3.66767 25.473 3.60852C25.4743 3.55312 25.4658 3.48689 25.4359 3.44346C25.3619 3.33578 25.3759 3.22247 25.3867 3.10635C25.3943 3.02387 25.3996 2.94108 25.4089 2.85881C25.461 2.40538 25.5011 1.95008 25.5708 1.49925C25.6215 1.17048 25.3902 0.775781 25.0598 0.728605C24.756 0.685387 24.4475 0.673827 24.1408 0.653103C23.9831 0.64248 23.8243 0.648312 23.6668 0.636024C23.0776 0.590306 22.489 0.53709 21.8997 0.49283C21.5097 0.463462 21.1189 0.439614 20.7282 0.422118C20.5845 0.415661 20.4087 0.349844 20.25 0.273404C19.922 0.115631 19.5586 0.0460645 19.196 0.0790772L18.356 0.155621C18.356 0.155621 17.7782 0.224458 17.4983 0.261324C17.2189 0.298086 16.941 0.358488 16.6606 0.374109C16.2275 0.398374 15.7978 0.438676 15.3729 0.524593C15.3558 0.528029 15.3338 0.530945 15.3101 0.533653C15.304 0.765054 15.2988 0.99656 15.2972 1.22796C15.2931 1.76772 15.293 2.30749 15.2926 2.84715C15.2925 2.9968 15.2975 3.14634 15.2991 3.29599C15.3053 3.85794 15.3328 4.42093 15.1645 4.97038C15.1433 5.03953 15.1874 5.12784 15.1976 5.20771C15.2055 5.26999 15.2142 5.3332 15.2113 5.39548C15.2038 5.56606 15.1618 5.74039 15.1852 5.90598C15.2415 6.30515 15.2915 6.7036 15.286 7.10704C15.2814 7.43113 15.2666 7.75511 15.2645 8.0792C15.2634 8.22749 15.2944 8.37641 15.2888 8.52429C15.2744 8.89764 15.2446 9.27046 15.2266 9.64381C15.2087 10.0159 15.2118 10.3896 15.1805 10.7604C15.1571 11.0391 15.1222 11.3169 15.0863 11.5947C15.082 11.8787 15.0454 12.2113 14.9923 12.5525C14.9891 12.7625 15.0021 12.9723 15.0401 13.1814C15.0678 13.3333 15.0628 13.469 14.9971 13.6162C14.9388 13.7466 14.8758 13.9158 14.9129 14.0381C14.9654 14.2115 14.9136 14.3397 14.867 14.4817C14.8068 14.4878 14.7542 14.4931 14.6793 14.5008C14.6995 14.6016 14.6952 14.6943 14.7374 14.7547C14.7702 14.8015 14.8609 14.8077 14.9252 14.8318C14.9334 14.8714 14.9494 14.905 14.9453 14.9359C14.9103 15.1997 15.0504 15.4198 15.1292 15.6534C15.153 15.7241 15.2276 15.808 15.2956 15.8276C15.4709 15.8779 15.5241 16.0122 15.6056 16.1681C15.4805 16.1738 15.3816 16.1794 15.2827 16.1825C15.1497 16.1867 15.0164 16.1855 14.8836 16.1935C14.8132 16.1976 14.7516 16.2237 14.7684 16.3456C14.8599 16.3733 14.9392 16.4337 14.9785 16.5467L14.6499 16.4966C14.663 16.2787 14.5803 16.0854 14.4411 15.8667C14.2903 15.6297 14.4053 15.3022 14.5711 15.0932C14.2969 14.4513 14.4065 13.8 14.4162 13.1611C14.4498 13.1275 14.5417 13.0674 14.5329 13.038C14.5128 12.9715 14.4426 12.9203 14.389 12.8584C14.4533 12.8265 14.5407 12.7829 14.6672 12.72C14.4539 12.5635 14.29 12.3645 14.5044 12.2048C14.7207 12.0437 14.7172 11.8901 14.6682 11.6694C14.6045 11.6811 14.5489 11.6915 14.5064 11.6995C14.3395 11.342 14.7657 10.8971 14.2514 10.5697C14.3679 10.5366 14.444 10.5149 14.5399 10.4877C14.48 10.3735 14.6693 10.1535 14.3788 10.107C14.4089 9.98623 14.4218 9.85699 14.4752 9.74743C14.5115 9.67276 14.6043 9.62548 14.6899 9.55008V9.73629C14.7033 9.74379 14.7168 9.75118 14.7302 9.75857C14.7725 9.67235 14.853 9.58372 14.8478 9.50051C14.8404 9.38304 14.7694 9.26974 14.7217 9.14435C14.5797 9.28629 14.698 9.66381 14.3404 9.65818C14.4034 9.49135 14.45 9.32837 14.5256 9.18028C14.5889 9.05625 14.6862 8.94961 14.7504 8.86025C14.6235 8.79277 14.5087 8.73185 14.394 8.67103C14.4506 8.63114 14.5071 8.59136 14.5614 8.55314C14.5116 8.51784 14.4484 8.47316 14.3581 8.40911C14.5286 8.15897 14.7526 7.91142 14.529 7.57161C14.5193 7.69471 14.5096 7.8178 14.4994 7.941C14.3375 7.93746 14.3375 7.93746 14.4118 7.38905C14.4608 7.39561 14.5098 7.40217 14.5696 7.41019V7.19035C14.4725 7.21284 14.392 7.23149 14.2979 7.25325V7.08923C14.3086 7.05903 14.3193 7.02893 14.3307 6.99842C14.3189 6.99821 14.309 6.99967 14.2979 7.00019V6.78118C14.3087 6.78503 14.3196 6.78899 14.3304 6.79295C14.3663 6.70141 14.3894 6.60164 14.4415 6.52062C14.5001 6.4297 14.5848 6.35587 14.6803 6.24996C14.5746 6.28151 14.4794 6.30994 14.3287 6.35493C14.3957 6.18862 14.4509 6.05167 14.5062 5.91462C14.4101 5.87651 14.329 5.84443 14.2489 5.81277C14.2437 5.80621 14.2382 5.79975 14.2335 5.79319C14.238 5.77674 14.2426 5.76039 14.2472 5.74394C14.3104 5.73415 14.3736 5.72425 14.5321 5.69957C14.1376 5.37475 14.3274 4.9836 14.297 4.62661C14.2806 4.43457 14.3754 4.23306 14.4204 4.03581C14.4744 3.79837 14.5288 3.56103 14.5832 3.32359C14.6108 3.20289 14.6386 3.0823 14.6642 2.97118C14.6642 2.856 14.6642 2.7429 14.6639 2.6296C14.5231 2.68042 14.3832 2.73082 14.254 2.77737C14.2729 2.32852 14.3085 1.87551 14.231 1.42416C14.226 1.42573 14.222 1.42791 14.2166 1.42927C14.207 1.39 14.1979 1.35897 14.192 1.32731C14.1251 0.971879 14.0602 0.916059 13.7074 0.905124C13.5631 0.90075 13.4399 0.866175 13.3295 0.750162C13.2251 0.640398 13.1062 0.518761 12.9847 0.450548C12.7893 0.341096 12.5504 0.295066 12.324 0.258096C11.9316 0.193841 11.5348 0.157079 11.1398 0.108757C11.1458 0.095948 10.4031 0.0358586 9.9771 0.00253349C9.80527 -0.0109007 9.63552 0.0297143 9.48275 0.109591C9.48202 0.109903 9.48139 0.11032 9.48066 0.110632C9.05504 0.332557 8.62744 0.550836 8.20171 0.772657C8.03071 0.861802 7.86377 0.963339 7.66642 0.840348C7.6532 0.832017 7.63154 0.82504 7.61873 0.830038C7.3767 0.926786 7.1629 0.815771 6.94577 0.737978C6.84225 0.700904 6.77497 0.742872 6.70812 0.812126C6.82153 1.04936 7.06615 0.803483 7.19185 0.956882C7.16644 1.16954 6.90817 1.03249 6.86485 1.18328C6.80382 1.15673 6.75331 1.13476 6.7027 1.11278C6.69729 1.16381 6.68073 1.21692 6.68927 1.26545C6.70135 1.33366 6.73238 1.39854 6.75519 1.46488C6.73509 1.48279 6.73353 1.48425 6.71353 1.50217C6.60356 1.44947 6.22053 1.28201 6.24188 1.3522C6.10691 1.39157 6.006 1.44895 5.9081 1.44426C5.62432 1.43072 5.3094 1.54288 5.07779 1.27139C5.06987 1.26222 5.04759 1.26524 5.03207 1.26254C4.80108 1.47363 4.78015 1.52872 4.84961 1.74429C4.95209 2.06234 4.89835 2.1721 4.58405 2.2877C4.57489 2.30582 4.56947 2.32446 4.56573 2.34331L5.15162 2.32759C5.06675 2.32946 4.98364 2.40403 4.89335 2.44829C4.97167 2.54128 5.02801 2.60502 5.07904 2.67281C5.08539 2.68135 5.06342 2.71114 5.0505 2.74019C4.99916 2.69937 4.95678 2.66573 4.9147 2.63241C4.76349 2.80903 4.75662 2.8133 4.58624 2.7152C4.57614 2.75852 4.5526 2.79955 4.50501 2.83684C4.63623 3.1151 4.62561 3.16936 4.40681 3.2836C4.44378 3.31964 4.47877 3.35379 4.51334 3.38764C4.5576 3.3514 4.6029 3.31443 4.67664 3.25423C4.6681 3.4194 4.66154 3.54416 4.65331 3.70319C4.55229 3.61914 4.47148 3.55177 4.35182 3.45221C4.38504 3.70798 4.11927 3.68569 4.07876 3.85367C4.25393 3.89022 4.28298 3.93292 4.21352 4.07112C4.1779 4.14193 4.09803 4.19942 4.19425 4.31564C4.25549 4.26503 4.31516 4.21556 4.38785 4.15558C4.38108 4.21671 4.39337 4.27961 4.36765 4.30856C4.2784 4.40885 4.15926 4.45456 4.01305 4.47591C4.00211 4.50955 3.99108 4.54423 3.97962 4.58005C4.01305 4.62733 4.0421 4.66857 4.07064 4.70898C4.1175 4.68263 4.15208 4.66316 4.17176 4.65212C4.2456 4.71033 4.31173 4.76241 4.3991 4.83114C4.40035 4.92549 4.40233 5.06285 4.40452 5.22281C4.29538 5.17324 4.22008 5.10795 4.15853 5.11919C4.08866 5.1319 4.02159 5.20532 3.97285 5.2677C3.95213 5.29415 3.96452 5.37361 3.99076 5.40454C4.06502 5.49212 4.15406 5.56721 4.24633 5.65583C4.23924 5.67041 4.21508 5.71207 4.19811 5.75643C4.1802 5.8034 4.36661 7.47601 4.40681 7.70064C4.42857 7.82228 4.47793 7.91882 4.61259 7.95204C4.65789 7.96318 4.71329 7.98932 4.73579 8.02598C4.80004 8.13054 4.8668 8.23895 4.90085 8.35506C4.94824 8.51627 5.0303 8.6151 5.25129 8.5999C5.12038 8.93638 5.29013 9.20475 5.39771 9.46875C5.47186 9.65068 5.61349 9.80908 5.64588 10.0358C5.56777 10.1033 5.48185 10.1775 5.36876 10.2753C5.44457 10.3336 5.51258 10.386 5.57579 10.4348C5.53715 10.4951 5.50195 10.5594 5.45738 10.6165C5.42853 10.6534 5.39011 10.6988 5.34908 10.7074C5.13142 10.7527 5.04675 10.7964 4.93022 10.9371C4.90564 10.9668 4.86794 11.0065 4.8368 11.006C4.72808 11.0043 4.70048 11.0793 4.66372 11.1556C4.65674 11.17 4.64883 11.1857 4.6404 11.2012C4.67622 11.2284 4.71965 11.2476 4.75859 11.2768C4.73641 11.3763 4.71611 11.4677 4.6959 11.5584C4.74172 11.566 4.77265 11.5711 4.82337 11.5795C4.77651 11.6309 4.74037 11.6707 4.72267 11.6902C4.73391 11.8321 4.74318 11.9507 4.75255 12.0697C4.79525 12.0742 4.83972 12.0787 4.87638 12.0825C4.82951 12.2173 4.74881 12.34 4.75464 12.4585C4.76318 12.6353 4.721 12.8254 4.82639 12.9935C4.84212 13.0185 4.82129 13.0686 4.81264 13.1061C4.79994 13.162 4.76547 13.2187 4.77068 13.272C4.80244 13.6002 4.84118 13.9279 4.87867 14.2556C4.92845 14.3453 4.99989 14.4256 5.08622 14.4976C5.10497 14.5132 5.12955 14.5219 5.15037 14.5332C5.10882 14.5952 5.08247 14.6345 5.05613 14.6736C5.10716 14.7434 5.15537 14.8092 5.20286 14.8741C5.16818 14.9585 5.13684 15.0346 5.10247 15.1184C5.14163 15.1646 5.19068 15.2029 5.21182 15.253C5.23442 15.3065 5.25951 15.3963 5.23327 15.4266C5.1284 15.5475 5.19724 15.6632 5.22181 15.7788C5.239 15.8595 5.28347 15.9345 5.30065 16.0152C5.38407 16.4076 5.43999 16.8056 5.62651 17.171C5.69951 17.314 5.72929 17.4791 5.7722 17.6137C5.85072 17.6469 5.93903 17.6564 5.97538 17.7049C6.08421 17.8501 6.22907 17.8408 6.3783 17.8316C6.46338 17.8263 6.54805 17.8142 6.63293 17.8051C6.55211 17.9536 6.4563 17.9726 6.32279 17.9159C6.16002 17.847 6.13544 17.8656 6.02995 18.0252C6.05973 18.0599 6.09025 18.095 6.11941 18.1311C6.12097 18.1331 6.11108 18.1443 6.10649 18.1513C5.93039 18.1926 5.93508 18.192 5.91175 18.0313C5.90706 17.9986 5.85228 17.9732 5.82625 17.9496C5.66983 18.1297 5.60141 18.3013 5.7798 18.451C5.90488 18.4936 6.006 18.5282 6.10722 18.5627C6.10451 18.5787 6.10181 18.5947 6.0991 18.6108H5.87863C5.85426 18.6737 5.83271 18.7296 5.81021 18.7878C5.908 18.7753 5.9909 18.7647 6.03849 18.7586C6.07233 18.9507 6.07473 19.1165 6.13472 19.2578C6.18689 19.3805 6.20511 19.6089 6.20876 19.6411C6.2199 19.7378 6.21157 19.8367 6.21053 19.9347C6.20668 20.2717 6.04578 20.6261 6.30186 20.8856C6.25614 21.0652 6.21459 21.2041 6.18637 21.3456C6.14846 21.5357 6.19387 21.613 6.36591 21.6961C6.42152 21.723 6.47255 21.7597 6.53368 21.7969C6.16356 22.0964 6.22459 22.6392 6.39673 23.0044C6.22657 23.2463 6.22875 23.2453 6.35935 23.5344C6.39642 23.6165 6.44547 23.7088 6.43891 23.7924C6.41715 24.0704 6.55503 24.3092 6.6473 24.5443C6.72613 24.7453 6.7379 24.9539 6.8133 25.1541C6.99044 25.2693 7.15821 25.2268 7.34161 25.0674V25.5745C7.18508 25.5733 7.04835 25.6619 6.95056 25.7939C6.99867 25.9431 7.09354 26.0847 7.07355 26.2074C7.0346 26.4462 7.17102 26.5247 7.34692 26.6041C7.3038 26.6759 7.24892 26.7352 7.23153 26.8041C7.20831 26.8959 7.20664 26.9953 7.20997 27.0909C7.21278 27.1685 7.24434 27.2313 7.3415 27.2439C7.46408 27.2598 7.43575 27.1381 7.50802 27.0715C7.60748 27.1489 7.70537 27.2252 7.81586 27.3111C7.57519 27.4134 7.3516 27.4927 7.14582 27.6046C7.07678 27.6421 7.05043 27.7615 7.01075 27.8464C7.00304 27.8628 7.02783 27.8919 7.03106 27.916C7.07448 28.2332 7.07428 28.2333 7.38285 28.2728C7.39003 28.2736 7.39763 28.2705 7.40513 28.2686C7.40513 28.2686 7.40524 28.2687 7.40524 28.2688C7.35077 28.2995 7.29599 28.3304 7.24132 28.3613C7.05074 28.4687 7.01887 28.6012 7.13978 28.7782C7.21716 28.8913 7.29297 29.0054 7.37899 29.1334C7.31755 29.1714 7.26808 29.202 7.21872 29.2326C7.26538 29.3 7.31151 29.3669 7.35525 29.43C7.32703 29.4972 7.30182 29.557 7.27433 29.6225C7.4169 29.6573 7.43794 29.7346 7.37431 29.8524C7.33702 29.8261 7.30224 29.8016 7.25944 29.7715C7.266 29.9851 7.266 29.9851 7.47907 30.2303C7.55478 30.1225 7.62904 30.0167 7.72745 29.8767C7.67767 29.8204 7.61102 29.745 7.54437 29.6695C7.61873 29.647 7.67371 29.6636 7.72787 29.6826C7.84888 29.7252 7.79358 29.8767 7.8745 29.9326C7.9601 29.9917 7.93604 30.0591 7.92407 30.1303C7.90907 30.2191 7.88897 30.3068 7.86835 30.4081C7.74942 30.3447 7.72006 30.2258 7.70714 30.1027C7.64528 30.2095 7.58436 30.2959 7.54291 30.3909C7.48032 30.5342 7.35046 30.4765 7.24965 30.4855C7.3011 30.6793 7.34796 30.8557 7.3993 31.0489C7.60185 31.0668 7.81045 31.2596 8.05404 31.0711C8.01238 31.251 7.71745 31.2184 7.80358 31.4852C7.68496 31.3999 7.60394 31.3416 7.52625 31.2857C7.42627 31.3886 7.47439 31.4438 7.54645 31.4941C7.51771 31.527 7.48928 31.5595 7.44877 31.6057C7.61841 31.661 7.76359 31.6791 7.90553 31.6039C8.0329 31.5365 8.0606 31.6108 8.07434 31.6634C8.00051 31.7486 7.96187 31.8193 7.9023 31.8543C7.84971 31.8851 7.74286 31.8522 7.71391 31.8895C7.63268 31.9942 7.56291 31.8547 7.48803 31.899C7.46678 31.9549 7.44512 32.0122 7.41138 32.1014C7.55739 32.0664 7.67194 32.0389 7.80253 32.0077V32.1544C8.01196 32.215 8.20837 32.2718 8.39583 32.326C8.39291 32.3726 8.37875 32.4203 8.38947 32.4616C8.41353 32.5542 8.4556 32.6422 8.47789 32.735C8.48528 32.7658 8.46425 32.8222 8.43894 32.8364C8.41572 32.8497 8.3524 32.8337 8.33647 32.8103C8.29304 32.7468 8.26544 32.6725 8.23347 32.6064C8.09142 32.7566 7.92802 32.6259 7.78816 32.6545C7.74182 32.711 7.69819 32.7641 7.6507 32.822C7.55145 32.6869 7.56905 32.472 7.36191 32.4847C7.29162 32.6546 7.22934 32.8049 7.16634 32.9572C7.30891 32.8929 7.47626 33.0297 7.61852 32.9017C7.63195 32.8897 7.70714 32.9463 7.75005 32.9691C7.71027 33.0008 7.67298 33.0305 7.60352 33.0859C7.70068 33.1215 7.76609 33.1439 7.83034 33.1693C7.92938 33.2085 7.95323 33.2648 7.8646 33.3631C7.74422 33.2356 7.61039 33.2018 7.46522 33.2881C7.37639 33.0814 7.37212 33.0795 7.15176 33.1417C7.1729 33.2466 7.16498 33.373 7.22247 33.4514C7.29526 33.5506 7.28079 33.6289 7.24923 33.7231C7.22486 33.7959 7.17529 33.8672 7.2284 33.9648C7.32598 33.8921 7.40899 33.8304 7.49844 33.7637C7.42034 33.6432 7.36504 33.5354 7.46095 33.3851C7.54145 33.5808 7.76556 33.6256 7.82274 33.836C7.84284 33.9096 7.95406 33.9692 8.04216 33.8963C8.14203 33.8138 8.17859 33.8842 8.24878 33.9437C8.15922 34.0324 8.04373 34.0403 7.98009 34.1502C7.88939 34.3066 7.74578 34.4324 7.6232 34.573C7.6383 34.6122 7.67652 34.669 7.67757 34.7266C7.67871 34.7822 7.65111 34.845 7.61904 34.8932C7.5477 35.0005 7.47761 34.8612 7.3992 34.8804C7.27246 35.163 7.23799 35.4737 7.31557 35.7521C7.41346 36.1031 7.40992 36.4696 7.53375 36.8149C7.60831 37.0228 7.62643 37.2518 7.65997 37.4728C7.67163 37.5496 7.67444 37.6404 7.64414 37.7082C7.5803 37.8506 7.59529 37.974 7.65393 38.114C7.72651 38.2875 7.79972 38.4687 7.82295 38.6528C7.85127 38.8777 7.81378 39.1102 7.83274 39.3371C7.84273 39.4571 7.90116 39.5784 7.96166 39.6856C7.98041 39.7188 8.09194 39.7339 8.13683 39.7107C8.22181 39.6666 8.31012 39.6009 8.35677 39.5208C8.38614 39.4704 8.3423 39.3774 8.32855 39.2856C8.37042 39.2955 8.4378 39.3027 8.43832 39.313C8.44581 39.4704 8.58141 39.484 8.68232 39.5239C8.66253 39.6893 8.54391 39.8318 8.66878 39.9985C8.58193 40.0378 8.51632 40.0675 8.45102 40.0971C8.41447 40.1812 8.35677 40.2024 8.27544 40.1532C8.2517 39.9065 8.1813 39.8645 7.92053 39.942C7.95614 40.0627 8.05154 40.208 8.01415 40.2985C7.95198 40.4488 8.04435 40.5467 8.03935 40.6634C8.09975 40.6843 8.14578 40.7002 8.21441 40.724C8.14599 40.765 8.10569 40.7893 8.06247 40.8151C8.08424 40.8673 8.10309 40.9127 8.12162 40.9572C8.08799 41.003 8.0557 41.0471 8.01956 41.0965C8.15943 41.1444 8.08486 41.3047 8.18911 41.3594C8.08288 41.4628 8.26409 41.5514 8.21827 41.6186C8.12016 41.7622 8.27107 41.7992 8.29918 41.8865C8.31137 41.9241 8.28835 41.9731 8.28283 42.0074C8.36583 42.0272 8.43363 42.0434 8.49434 42.0578C8.52684 42.0133 8.55256 41.9781 8.57922 41.9415C8.68024 42.0178 8.68398 42.1046 8.61879 42.1675C8.58349 42.2016 8.49986 42.1923 8.43852 42.1902C8.39895 42.1889 8.35844 42.1512 8.32126 42.1554C8.277 42.1603 8.23587 42.1927 8.17151 42.2236C8.27731 42.3252 8.43457 42.3362 8.40582 42.5103C8.25898 42.5504 8.24295 42.6713 8.2417 42.7986C8.40145 42.8835 8.32678 42.557 8.51684 42.692C8.47726 42.7829 8.43634 42.8769 8.38708 42.9901C8.4455 42.9803 8.48435 42.9759 8.52215 42.967C8.55756 42.9585 8.59182 42.9454 8.63587 42.9314C8.64941 43.0969 8.49049 43.0288 8.44342 43.1205C8.46279 43.1578 8.48674 43.204 8.51101 43.2508C8.45446 43.2726 8.40416 43.2922 8.33709 43.3181C8.40864 43.4514 8.47799 43.5655 8.53236 43.6863C8.58963 43.8136 8.63264 43.9476 8.68117 44.0768C8.64087 44.0669 8.63264 44.1528 8.67669 44.2045C8.71283 44.2471 8.75522 44.3454 8.73866 44.3615C8.65826 44.4399 8.71377 44.4935 8.74751 44.5594C8.82156 44.7042 8.8905 44.8516 8.96735 45.0099C8.85134 45.1827 8.7297 45.3639 8.61567 45.5338C8.61567 45.677 8.65149 45.8296 8.60473 45.9501C8.56474 46.0531 8.58245 46.1284 8.61234 46.2074C8.64983 46.3067 8.70231 46.3995 8.76209 46.487C8.80895 46.5557 8.85603 46.6267 8.90799 46.6922C8.92768 46.6303 8.94705 46.561 8.98776 46.5282C9.0113 46.6042 9.03723 46.6703 9.05348 46.744C9.06764 46.8084 9.08993 46.8586 9.1194 46.8946C9.13783 46.9094 9.15606 46.9248 9.1748 46.9394C9.21687 46.962 9.26707 46.9674 9.32549 46.9526C9.46879 46.9163 9.47702 46.7472 9.50857 46.6017C9.51847 46.5563 9.51784 46.5089 9.52076 46.4623C9.64698 46.5362 9.57127 46.7534 9.60126 46.9296C9.64656 46.9289 9.7078 46.959 9.75164 46.922C9.93493 46.7681 10.046 46.86 10.1509 47.0224C10.232 47.1479 10.3501 47.1157 10.4678 46.9737C10.5291 46.8998 10.5988 46.8439 10.6886 46.7567C10.7692 46.9406 10.8399 47.102 10.9335 47.3158C10.6882 47.3835 10.4959 47.4366 10.2928 47.4927C10.2827 47.5515 10.2723 47.6118 10.2608 47.6789C10.337 47.7056 10.4028 47.7546 10.4776 47.7946L11.4104 47.6289C11.4332 47.6248 11.4562 47.6219 11.4792 47.6189C11.4785 47.5838 11.4778 47.5487 11.477 47.5146C11.3432 47.4454 11.2233 47.3831 11.0678 47.3026C11.1905 47.2067 11.2678 47.1418 11.3469 47.0851C11.6122 46.8948 11.6843 46.9157 11.8516 47.1921C11.8785 47.2366 11.9382 47.2342 11.9828 47.2534C11.9955 47.2278 12.0082 47.2022 12.0209 47.1766C11.9627 47.0748 11.9045 46.973 11.8563 46.8885C11.9517 46.7812 12.0459 46.6698 12.1439 46.5693C12.1662 46.5465 12.2019 46.5612 12.2372 46.5581C12.1936 46.6772 12.1588 46.7727 12.1185 46.8827C12.1982 46.8783 12.259 46.8751 12.3303 46.8712C12.3341 46.8972 12.3378 46.9231 12.3417 46.949C12.2933 47.0563 12.2574 47.136 12.2337 47.1884C12.2983 47.1954 12.3618 47.1993 12.4241 47.2046C12.454 47.2155 12.4999 47.2225 12.568 47.2235C12.5868 47.2269 12.6057 47.2297 12.6242 47.2343C12.7758 47.272 12.9207 47.2492 13.0868 47.057C13.0841 47.3334 13.2211 47.3006 13.37 47.2538C13.316 47.4671 13.108 47.4923 13.1286 47.7213L13.2459 47.7311C13.2728 47.7045 13.2979 47.6639 13.3241 47.6135C13.3832 47.5002 13.4609 47.4063 13.5312 47.3056C13.5178 47.466 13.5199 47.5514 13.5523 47.6108C13.59 47.5637 13.6438 47.5127 13.7177 47.4499C13.8201 47.363 14.0404 47.3764 14.2106 47.4809C14.2587 47.5104 14.3051 47.5426 14.3522 47.5734C14.4336 47.4777 14.5062 47.3922 14.6216 47.2564C14.65 47.436 14.6802 47.5587 14.6862 47.6818C14.7438 47.6305 14.8016 47.5795 14.8587 47.5281C14.9269 47.8857 15.008 48.2583 15.0658 48.6325C15.0842 48.7521 15.0624 48.8626 14.9547 48.9493C15.0592 48.951 15.1637 48.9487 15.2683 48.9462L15.2691 48.9458L15.7632 48.895C15.7632 48.895 17.2983 48.5789 17.4206 48.5478C17.5427 48.5167 19.0381 47.8967 19.0381 47.8967V47.8968C19.2684 47.7538 19.5 47.613 19.7238 47.4608C20.3089 47.0625 20.8062 46.5868 21.0629 45.8999C21.1942 45.5484 21.3435 45.2056 21.3345 44.8202C21.3336 44.7793 21.3338 44.7291 21.3552 44.6985C21.5326 44.4459 21.4804 44.1557 21.4977 43.8765C21.5388 43.2133 21.5743 42.5494 21.6266 41.8869C21.6567 41.5061 21.6885 41.1218 21.7681 40.7495C21.8698 40.2739 21.8555 39.792 21.9081 39.3146C21.966 38.7891 22.051 38.2662 22.0931 37.7395C22.1369 37.19 22.2895 36.6607 22.3597 36.1193C22.411 35.7229 22.4768 35.3331 22.5636 34.9444C22.5847 34.8493 22.5754 34.7461 22.5714 34.6469C22.5632 34.4396 22.532 34.2317 22.5409 34.0253C22.5663 33.4361 22.601 32.847 22.6435 32.2587C22.6835 31.7052 22.7354 31.1526 22.787 30.6C22.83 30.139 22.8796 29.6786 22.927 29.218C22.9577 28.9215 22.9871 28.6248 23.023 28.3288C23.0328 28.2473 23.0638 28.1683 23.0841 28.0879C23.1224 27.9352 23.1625 27.7827 23.197 27.6291C23.2151 27.5482 23.2161 27.4631 23.2363 27.3829C23.4061 26.7111 23.4707 26.0282 23.5081 25.3368C23.5444 24.6637 23.5472 23.992 23.5531 23.3188C23.5566 22.9383 23.6364 22.5589 23.6728 22.1781C23.7123 21.7654 23.733 21.3508 23.7779 20.9387C23.8056 20.684 23.8586 20.4317 23.9082 20.1798C23.9676 19.8782 24.0366 19.5786 24.0992 19.2776C24.1178 19.1882 24.1441 19.0969 24.1413 19.0072C24.1257 18.521 24.221 18.0497 24.3 17.5734C24.3728 17.1353 24.4406 16.6928 24.4198 16.2445C24.4178 16.2009 24.4177 16.1297 24.4211 16.0862C24.4445 15.788 24.4793 15.4903 24.4898 15.1917C24.5018 14.8513 24.5051 14.5123 24.6421 14.1917C24.661 14.1476 24.6866 14.0913 24.6742 14.0514C24.5752 13.732 24.7822 13.5439 24.9688 13.3187C24.9534 13.2554 24.9309 13.1683 24.9116 13.0804C24.9044 13.0483 24.8893 13.0042 24.9035 12.9834C25.079 12.7277 24.9224 12.4108 25.0592 12.1486C25.0669 12.1339 25.0443 12.1035 25.0349 12.0778C25.1033 12.0434 25.1699 12.01 25.2383 11.9757C25.223 11.9317 25.2221 11.8971 25.2061 11.8874C25.0811 11.8118 25.0432 11.6956 25.0318 11.559C25.0281 11.5139 25.0046 11.4504 24.9701 11.4311C24.7147 11.2878 24.824 11.0173 24.8021 10.8022C24.764 10.4259 24.7741 10.0484 24.8478 9.67745C24.9816 9.00345 24.9147 8.29258 25.1459 7.63045C25.1796 7.5337 25.2225 7.43956 25.268 7.34219C25.2413 7.33532 25.2152 7.32855 25.188 7.32157C25.2378 7.27554 25.2878 7.23555 25.3345 7.19837C25.3435 7.17858 25.3526 7.15932 25.3618 7.13891C25.3713 7.14453 25.38 7.14901 25.3893 7.15411C25.4577 7.09798 25.5126 7.04632 25.5359 6.988C25.6228 6.76993 25.2069 6.85054 25.0709 6.71807C25.186 6.66652 25.285 6.6131 25.3978 6.57352C25.6622 6.48073 25.7554 6.31671 25.674 6.10572Z" fill="black"/>
</svg>
