<svg id="svg" version="1.1" xmlns="http://www.w3.org/2000/svg" xmlns:xlink="http://www.w3.org/1999/xlink" width="400" height="479.76539589442814" viewBox="0, 0, 400,479.76539589442814"><g id="svgg"><path id="path0" d="M314.663 22.176 C 312.727 23.051,310.484 24.195,309.677 24.718 C 308.064 25.766,305.690 27.047,302.826 28.416 C 301.800 28.906,300.799 29.568,300.602 29.886 C 300.406 30.205,299.134 31.001,297.776 31.657 C 296.419 32.312,294.252 33.497,292.962 34.291 C 291.672 35.085,289.956 36.075,289.150 36.491 C 288.343 36.907,286.891 37.751,285.924 38.366 C 284.956 38.981,283.240 40.055,282.111 40.752 C 273.446 46.104,264.323 52.990,255.767 60.635 C 253.644 62.533,250.692 65.172,249.208 66.500 C 247.723 67.828,245.767 69.443,244.860 70.088 C 241.225 72.674,239.242 74.443,237.224 76.898 C 229.613 86.158,223.625 90.369,219.684 89.232 C 218.374 88.855,215.587 88.130,213.490 87.621 C 211.393 87.113,208.754 86.330,207.625 85.880 C 204.934 84.810,197.232 83.115,195.082 83.120 C 191.623 83.128,189.606 86.723,189.340 93.358 C 189.166 97.671,188.869 99.307,188.104 100.152 C 186.731 101.669,186.837 104.340,188.334 105.933 C 189.491 107.165,189.537 107.586,189.055 112.463 C 188.577 117.302,188.646 117.954,190.018 121.554 C 192.253 127.419,191.962 138.742,189.553 139.661 C 184.893 141.438,180.389 138.366,182.926 135.140 C 184.303 133.390,184.156 132.033,182.341 129.707 C 181.289 128.360,181.296 128.270,182.698 125.638 C 183.567 124.005,184.003 122.434,183.804 121.645 C 183.558 120.662,183.918 120.018,185.275 119.015 C 187.375 117.462,186.850 116.129,184.140 116.129 C 181.363 116.129,180.645 115.574,180.645 113.427 C 180.645 110.902,178.316 110.665,175.080 112.861 C 173.926 113.644,172.727 114.370,172.415 114.474 C 172.103 114.578,171.808 116.642,171.759 119.062 C 171.687 122.673,171.411 123.853,170.215 125.657 C 169.094 127.349,168.703 128.829,168.519 132.090 C 168.378 134.567,167.941 136.700,167.465 137.226 C 167.017 137.721,166.378 138.843,166.044 139.721 C 165.674 140.695,164.630 141.653,163.364 142.182 C 160.602 143.336,160.515 145.195,163.196 145.770 C 165.817 146.332,166.146 146.604,165.357 147.554 C 164.956 148.037,164.134 148.240,163.359 148.045 C 161.711 147.632,158.652 148.887,156.136 151.008 C 154.242 152.606,154.186 152.615,152.994 151.537 C 152.072 150.704,151.088 150.488,148.910 150.640 C 147.332 150.751,146.041 150.602,146.041 150.311 C 146.041 149.164,148.359 145.088,149.752 143.785 C 151.066 142.555,151.189 142.077,150.904 139.314 C 150.632 136.685,150.772 136.031,151.832 134.972 C 152.561 134.242,153.079 132.978,153.079 131.926 C 153.079 130.937,153.368 129.589,153.720 128.931 C 154.183 128.065,154.183 127.556,153.720 127.092 C 152.534 125.906,152.926 122.581,154.252 122.581 C 155.198 122.581,155.425 122.972,155.425 124.599 C 155.425 126.796,156.424 127.905,157.241 126.615 C 157.523 126.170,157.764 124.619,157.776 123.167 C 157.831 116.828,159.752 113.451,163.187 113.656 C 168.172 113.954,172.516 108.593,169.501 105.865 C 168.770 105.203,168.328 104.059,168.328 102.823 C 168.328 101.652,167.988 100.712,167.494 100.523 C 167.035 100.347,166.248 99.174,165.745 97.916 C 164.846 95.668,164.612 95.524,160.649 94.765 C 160.135 94.667,158.495 94.771,157.005 94.997 C 153.943 95.462,153.079 94.952,153.079 92.682 C 153.079 91.754,152.433 90.604,151.405 89.702 C 150.214 88.656,149.615 87.453,149.326 85.524 C 148.759 81.746,137.196 68.378,132.322 65.867 C 131.319 65.351,130.119 64.373,129.655 63.696 C 127.689 60.824,119.789 53.158,118.017 52.403 C 116.959 51.951,114.716 50.248,113.032 48.617 C 109.388 45.087,108.533 44.575,106.292 44.575 C 105.032 44.575,103.947 43.889,102.116 41.935 C 100.755 40.484,99.190 39.296,98.638 39.296 C 98.085 39.296,96.450 38.171,95.004 36.797 C 93.558 35.422,90.660 33.424,88.563 32.356 C 86.466 31.288,84.091 30.054,83.284 29.614 C 79.705 27.659,75.615 25.806,74.881 25.806 C 74.440 25.806,73.446 25.254,72.670 24.578 C 69.266 21.610,59.824 24.838,59.824 28.969 C 59.824 30.295,57.520 33.968,54.921 36.784 C 53.567 38.251,53.149 39.295,53.042 41.476 C 52.866 45.044,52.009 48.282,50.720 50.250 C 49.973 51.389,49.488 54.412,48.862 61.820 C 47.270 80.689,47.271 80.538,48.619 84.974 C 49.479 87.805,49.853 90.630,49.853 94.282 C 49.853 98.780,50.020 99.676,51.026 100.587 C 51.902 101.379,52.199 102.393,52.199 104.590 C 52.199 106.444,52.541 107.910,53.123 108.552 C 53.630 109.114,54.247 111.053,54.492 112.862 C 54.744 114.720,55.344 116.466,55.870 116.873 C 56.382 117.270,57.204 118.915,57.697 120.528 C 59.523 126.507,60.552 128.790,62.476 131.139 C 65.825 135.226,65.653 139.463,61.962 143.807 C 59.080 147.200,57.478 149.405,57.478 149.979 C 57.478 150.268,56.818 151.400,56.012 152.493 C 55.147 153.665,54.545 155.272,54.545 156.411 C 54.545 158.049,54.246 158.467,52.569 159.168 C 49.872 160.295,48.605 162.188,49.308 164.038 C 50.128 166.196,44.287 173.021,41.619 173.021 C 41.129 173.021,38.710 178.993,38.710 180.203 C 38.710 180.754,37.984 181.666,37.097 182.231 C 35.061 183.527,34.624 184.142,34.613 185.735 C 34.608 186.437,33.934 187.539,33.115 188.183 C 31.810 189.209,31.603 189.872,31.441 193.534 C 31.277 197.243,31.058 197.926,29.496 199.590 C 28.528 200.622,27.573 201.930,27.374 202.498 C 27.175 203.065,26.345 203.833,25.530 204.205 C 23.722 205.028,23.636 206.098,25.285 207.252 C 26.638 208.200,24.044 211.680,21.346 212.536 C 17.789 213.665,14.825 227.566,18.142 227.566 C 20.660 227.566,21.324 228.933,21.367 234.213 C 21.416 240.260,22.080 241.252,26.267 241.537 C 31.239 241.874,35.395 241.673,36.002 241.065 C 36.879 240.188,38.496 240.339,39.553 241.396 C 41.137 242.980,40.019 243.486,35.848 243.075 C 31.328 242.630,31.082 242.797,29.916 247.105 C 29.044 250.329,29.844 252.355,34.015 257.478 C 35.197 258.930,36.791 261.437,37.558 263.050 C 38.325 264.663,40.152 267.249,41.617 268.798 C 46.708 274.178,53.062 280.352,53.507 280.352 C 54.507 280.352,58.563 284.596,59.259 286.370 C 59.669 287.415,61.110 289.457,62.461 290.909 C 63.812 292.361,65.667 294.868,66.582 296.481 C 67.497 298.094,69.555 300.601,71.155 302.053 C 75.319 305.831,82.416 312.605,86.510 316.712 C 88.751 318.959,90.512 320.239,91.358 320.238 C 92.288 320.235,92.967 320.821,93.618 322.187 C 94.804 324.672,97.809 326.341,100.402 325.954 C 102.986 325.569,104.810 326.325,107.183 328.769 C 109.585 331.243,110.554 331.306,111.713 329.066 C 112.657 327.240,112.622 327.174,109.971 325.774 C 108.619 325.061,108.711 323.542,110.223 321.620 C 111.795 319.621,111.809 310.711,110.244 308.179 C 109.513 306.996,109.089 305.265,109.086 303.450 C 109.082 301.603,108.568 299.545,107.638 297.654 C 106.844 296.041,106.185 293.666,106.173 292.375 C 106.144 289.130,105.236 286.163,103.482 283.579 C 102.423 282.018,101.893 280.272,101.636 277.498 C 101.307 273.936,101.087 273.433,99.026 271.541 C 97.119 269.792,96.774 269.109,96.774 267.078 C 96.774 264.470,95.539 262.295,91.121 257.122 C 89.714 255.474,88.563 253.885,88.563 253.590 C 88.563 253.295,87.045 251.581,85.191 249.782 C 82.934 247.592,81.077 245.016,79.577 241.996 C 78.345 239.514,76.547 236.583,75.581 235.484 C 73.176 232.745,70.567 227.174,70.063 223.701 C 69.833 222.117,69.390 220.330,69.078 219.731 C 68.767 219.131,68.142 216.492,67.690 213.866 C 67.238 211.240,66.471 207.648,65.985 205.884 C 65.500 204.120,65.103 201.461,65.103 199.976 C 65.103 195.932,63.410 186.752,61.818 182.156 C 60.302 177.781,60.060 175.653,61.010 175.065 C 61.340 174.861,62.433 173.064,63.438 171.072 C 64.444 169.079,65.855 166.657,66.573 165.689 C 67.291 164.721,68.359 162.610,68.946 160.997 C 69.534 159.384,70.625 157.318,71.371 156.407 C 72.148 155.457,72.731 153.954,72.735 152.888 C 72.749 149.653,73.333 148.387,74.810 148.387 C 77.564 148.387,79.179 147.349,79.179 145.578 C 79.179 144.252,79.597 143.713,81.232 142.933 C 83.578 141.815,83.727 141.344,82.178 139.943 C 81.172 139.033,81.141 138.710,81.837 136.397 C 82.709 133.502,81.838 131.177,77.752 125.490 C 76.601 123.888,75.660 122.398,75.660 122.178 C 75.660 121.794,74.838 119.939,71.768 113.399 C 70.988 111.736,68.773 108.401,66.846 105.987 C 63.096 101.288,62.822 100.461,64.282 98.233 C 65.012 97.118,65.132 96.032,64.820 93.345 C 64.527 90.825,64.740 88.402,65.606 84.388 C 66.260 81.362,67.206 75.715,67.709 71.839 C 68.213 67.963,68.872 63.929,69.174 62.874 C 69.477 61.819,69.775 58.260,69.836 54.965 C 69.971 47.719,70.594 44.895,72.471 43.018 C 74.144 41.346,75.880 41.861,76.468 44.206 C 76.796 45.514,77.654 46.218,82.997 49.560 C 84.028 50.205,86.078 51.724,87.552 52.935 C 89.026 54.146,90.719 55.333,91.314 55.574 C 93.346 56.396,98.112 60.113,102.405 64.223 C 104.764 66.481,108.027 69.516,109.658 70.968 C 111.288 72.419,115.061 75.995,118.041 78.913 C 123.945 84.694,127.028 86.804,129.573 86.804 C 130.479 86.804,131.850 87.286,132.619 87.877 C 133.388 88.467,134.464 89.113,135.010 89.311 C 136.644 89.907,138.058 92.653,138.152 95.413 C 138.209 97.104,138.715 98.650,139.607 99.856 C 140.601 101.200,140.987 102.529,141.016 104.708 C 141.043 106.743,141.386 108.039,142.082 108.735 C 143.534 110.187,143.357 112.564,141.549 115.895 C 137.705 122.977,137.644 123.163,138.763 124.399 C 140.068 125.841,139.422 126.473,137.379 125.757 C 136.117 125.314,135.633 124.616,135.099 122.461 C 133.854 117.438,130.206 113.196,127.131 113.196 C 124.801 113.196,117.627 121.571,114.064 128.451 C 113.413 129.709,111.565 132.261,109.959 134.122 C 106.533 138.089,103.838 141.949,103.823 142.908 C 103.817 143.282,102.163 145.703,100.147 148.288 C 98.130 150.874,95.821 154.114,95.015 155.490 C 94.208 156.866,93.152 158.412,92.669 158.927 C 92.185 159.442,91.022 161.042,90.084 162.483 C 89.147 163.924,87.893 165.818,87.298 166.692 C 86.704 167.566,86.217 168.933,86.217 169.729 C 86.217 171.077,85.861 171.591,83.655 173.430 C 83.023 173.957,82.819 175.575,82.838 179.882 C 82.869 186.442,83.227 187.474,85.854 188.572 C 89.917 190.270,91.974 197.156,89.443 200.587 C 87.694 202.957,87.694 202.321,89.443 204.692 C 90.249 205.785,90.909 207.379,90.909 208.234 C 90.909 209.089,91.432 210.262,92.071 210.840 C 92.709 211.418,93.390 212.730,93.582 213.755 C 94.265 217.398,100.141 221.488,101.632 219.359 C 102.582 218.002,103.226 218.387,103.226 220.312 C 103.226 221.059,102.703 221.939,102.053 222.287 C 99.388 223.713,101.290 228.859,104.085 227.786 C 105.110 227.393,107.331 229.058,107.331 230.220 C 107.331 230.611,108.341 232.220,109.574 233.794 C 112.417 237.422,116.286 244.397,115.974 245.331 C 115.842 245.724,114.719 246.041,113.453 246.041 C 110.081 246.041,110.095 247.571,113.484 249.465 C 116.407 251.099,117.376 251.010,119.668 248.899 C 121.449 247.259,126.930 245.240,131.378 244.585 C 133.152 244.324,135.032 243.935,135.555 243.722 C 136.735 243.241,137.383 244.696,136.880 246.698 C 136.635 247.673,136.870 248.530,137.602 249.339 C 138.251 250.056,138.617 251.202,138.514 252.190 C 138.418 253.099,138.621 254.016,138.965 254.229 C 139.927 254.824,139.704 258.725,138.640 259.901 C 138.118 260.478,137.557 262.214,137.393 263.759 C 137.229 265.305,136.689 267.033,136.193 267.600 C 135.400 268.509,135.384 269.347,136.058 274.639 C 137.487 285.853,137.384 286.221,133.238 284.730 C 128.161 282.904,127.002 284.615,130.609 288.609 C 132.401 290.592,133.031 290.939,134.275 290.632 C 137.425 289.852,138.093 290.036,138.645 291.838 C 139.042 293.131,137.188 294.428,134.942 294.428 C 133.150 294.428,132.450 295.783,133.481 297.254 C 133.974 297.958,134.141 298.534,133.852 298.534 C 132.913 298.534,131.965 301.454,131.965 304.346 C 131.965 307.163,133.915 310.248,135.710 310.273 C 137.641 310.299,137.907 311.178,137.179 315.128 C 136.333 319.717,136.868 320.821,139.939 320.821 C 143.916 320.821,145.255 314.917,141.789 312.668 C 139.073 310.905,138.979 309.455,141.411 306.860 C 144.075 304.017,145.098 304.523,145.455 308.861 C 145.616 310.825,146.092 312.847,146.513 313.353 C 148.585 315.846,147.175 320.374,143.695 322.402 C 138.432 325.469,138.259 325.747,138.563 330.649 C 138.853 335.324,139.732 336.878,142.405 337.444 C 144.386 337.863,147.801 341.050,147.801 342.480 C 147.801 344.444,146.020 347.846,144.746 348.317 L 143.488 348.783 144.762 349.116 C 146.912 349.678,146.985 351.232,144.948 353.092 C 142.654 355.188,142.615 356.640,144.819 357.942 C 148.085 359.872,152.537 355.614,150.571 352.441 C 149.986 351.497,150.016 351.181,150.733 350.724 C 152.008 349.913,152.489 350.016,152.847 351.173 C 153.022 351.738,153.409 352.658,153.709 353.218 C 155.133 355.886,153.033 360.647,149.937 361.767 C 146.466 363.022,146.586 366.624,150.167 368.715 C 152.070 369.825,154.058 372.925,155.186 376.540 C 155.751 378.349,156.064 378.596,157.826 378.620 C 160.546 378.658,160.921 378.921,168.027 385.779 C 175.348 392.843,175.751 392.956,178.467 388.710 C 179.035 387.823,179.955 387.093,180.512 387.088 C 182.878 387.067,183.081 386.233,181.438 383.293 C 180.407 381.447,179.818 379.466,179.753 377.618 C 179.584 372.818,176.699 371.045,172.465 373.140 C 166.464 376.109,164.094 373.176,162.985 361.405 C 162.199 353.075,162.527 351.723,165.650 350.418 C 166.757 349.956,167.815 349.330,168.002 349.027 C 168.189 348.725,169.616 348.054,171.173 347.536 C 175.480 346.106,178.810 341.935,175.646 341.935 C 173.850 341.935,172.843 337.500,174.494 336.866 C 175.827 336.355,177.126 337.754,177.126 339.700 C 177.126 341.238,177.303 341.407,178.739 341.241 C 180.478 341.041,181.542 337.971,182.237 331.151 C 182.545 328.126,183.551 328.409,183.569 331.525 C 183.575 332.575,183.890 333.138,184.472 333.138 C 185.985 333.138,186.510 335.837,186.510 343.616 C 186.510 351.643,186.791 352.493,189.443 352.493 C 191.518 352.493,192.374 351.477,192.384 349.003 C 192.400 345.451,194.780 343.837,196.767 346.033 C 197.355 346.682,198.170 347.214,198.579 347.214 C 198.987 347.214,202.243 348.666,205.813 350.440 C 209.384 352.214,212.549 353.666,212.848 353.666 C 215.902 353.666,215.961 366.346,212.931 371.408 C 211.517 373.769,210.547 374.128,209.381 372.723 C 205.141 367.614,196.481 371.357,196.481 378.298 C 196.481 381.572,196.375 381.817,194.135 383.735 C 190.650 386.718,190.901 387.922,196.117 393.241 C 200.997 398.216,202.601 398.692,207.267 396.545 C 208.593 395.935,211.657 394.722,214.076 393.849 C 216.496 392.977,219.604 391.760,220.983 391.146 C 222.363 390.532,223.815 390.027,224.209 390.024 C 224.604 390.021,226.246 389.369,227.859 388.576 C 229.472 387.783,231.126 387.125,231.534 387.115 C 232.709 387.086,234.520 383.606,235.197 380.073 C 235.782 377.022,236.836 372.289,239.053 362.757 C 239.578 360.499,240.353 356.804,240.776 354.545 C 241.199 352.287,241.798 349.780,242.107 348.974 C 242.417 348.167,242.983 345.150,243.365 342.270 C 243.747 339.389,244.292 336.599,244.575 336.069 C 244.859 335.540,245.383 333.278,245.741 331.043 C 246.425 326.778,248.091 318.993,249.672 312.687 C 250.187 310.633,250.932 307.202,251.329 305.062 C 252.107 300.864,253.397 295.370,255.135 288.856 C 255.737 286.598,256.409 283.590,256.627 282.171 C 256.845 280.752,257.358 278.773,257.765 277.772 C 258.173 276.772,258.690 274.633,258.915 273.021 C 259.668 267.606,262.915 259.928,265.364 257.771 C 265.730 257.449,267.430 255.469,269.142 253.372 C 270.854 251.276,272.562 249.296,272.938 248.974 C 273.313 248.651,274.929 246.804,276.528 244.868 C 278.127 242.933,280.705 239.897,282.257 238.123 C 283.808 236.349,285.400 234.496,285.794 234.005 C 286.188 233.514,287.764 231.638,289.295 229.837 C 291.347 227.425,292.224 225.805,292.626 223.691 C 292.925 222.113,293.437 220.121,293.763 219.265 C 294.089 218.409,294.652 216.034,295.013 213.986 C 295.375 211.939,296.040 208.944,296.492 207.331 C 296.944 205.718,297.994 201.232,298.826 197.361 C 299.658 193.490,300.870 188.368,301.520 185.979 C 303.997 176.864,303.617 171.567,300.357 169.781 C 298.118 168.554,295.673 166.223,295.014 164.686 C 294.697 163.947,293.111 161.496,291.490 159.238 C 289.869 156.979,286.529 152.097,284.068 148.387 C 281.606 144.677,277.819 139.003,275.652 135.777 C 273.486 132.551,271.027 128.856,270.189 127.566 C 268.006 124.206,261.450 114.985,260.411 113.814 C 258.045 111.148,251.613 101.507,251.613 100.628 C 251.613 98.883,259.025 90.148,269.504 79.544 C 275.262 73.717,277.102 72.073,284.164 66.442 C 287.989 63.393,288.510 63.020,296.774 57.409 C 310.060 48.391,309.756 48.392,311.024 57.331 C 311.561 61.122,312.247 65.806,312.549 67.742 C 312.850 69.677,313.387 75.674,313.741 81.067 C 314.095 86.460,314.645 91.558,314.964 92.396 C 316.683 96.919,314.733 106.105,311.149 110.365 C 310.419 111.233,309.236 113.214,308.520 114.769 C 304.746 122.963,301.485 127.720,295.942 133.113 C 292.242 136.714,292.525 138.688,297.669 145.161 C 298.695 146.452,299.974 148.299,300.512 149.267 C 301.050 150.235,302.674 152.610,304.120 154.545 C 319.378 174.966,319.679 175.797,316.552 188.856 C 315.056 195.107,313.233 203.651,312.861 206.158 C 312.669 207.449,312.152 209.692,311.712 211.144 C 311.272 212.595,310.742 215.103,310.533 216.716 C 308.541 232.135,307.533 233.699,282.110 260.818 C 277.216 266.039,275.817 268.937,274.236 277.126 C 273.801 279.384,273.148 281.891,272.786 282.698 C 272.424 283.504,271.223 288.651,270.118 294.135 C 269.012 299.619,267.836 305.161,267.503 306.452 C 265.894 312.693,264.972 316.727,264.421 319.941 C 264.088 321.877,263.338 325.044,262.753 326.979 C 262.168 328.915,261.508 331.818,261.285 333.431 C 261.063 335.044,260.630 336.834,260.322 337.409 C 260.014 337.984,259.394 340.549,258.944 343.109 C 258.494 345.668,257.848 348.282,257.509 348.916 C 256.676 350.472,256.727 353.853,257.595 354.721 C 259.137 356.263,260.813 355.405,265.148 350.853 C 269.124 346.678,271.730 343.848,282.792 331.690 C 284.837 329.442,287.566 326.515,288.856 325.185 C 290.147 323.855,294.094 319.756,297.629 316.076 C 301.163 312.395,307.880 305.425,312.556 300.587 C 330.333 282.190,333.040 279.358,336.665 275.367 C 338.715 273.109,346.378 265.059,353.693 257.478 C 361.009 249.897,367.624 242.991,368.394 242.130 C 374.738 235.042,380.059 227.936,380.059 226.552 C 380.059 224.939,376.885 219.508,373.543 215.405 C 371.643 213.071,370.088 211.040,370.088 210.890 C 370.088 210.566,363.475 201.498,360.221 197.361 C 358.952 195.748,356.959 192.977,355.791 191.202 C 354.623 189.428,353.217 187.317,352.666 186.510 C 351.706 185.106,337.531 163.526,334.367 158.651 C 333.530 157.361,332.640 156.041,332.389 155.718 C 332.139 155.396,331.105 153.812,330.092 152.199 C 329.079 150.587,326.832 147.099,325.099 144.449 C 320.022 136.688,320.016 135.732,324.988 128.339 C 325.600 127.430,326.628 125.905,327.273 124.950 C 327.918 123.996,328.446 122.981,328.446 122.695 C 328.446 122.410,328.967 121.704,329.604 121.128 C 330.241 120.552,330.926 119.562,331.127 118.929 C 331.328 118.296,332.229 116.682,333.129 115.341 C 334.029 114.000,335.750 111.056,336.954 108.798 L 339.143 104.692 338.788 96.774 C 338.594 92.419,338.054 86.349,337.590 83.284 C 337.126 80.220,336.573 74.282,336.362 70.088 C 336.151 65.894,335.739 60.867,335.446 58.916 C 335.153 56.966,334.515 50.631,334.028 44.840 C 332.946 31.953,332.023 25.430,330.985 23.335 C 329.405 20.144,320.550 19.516,314.663 22.176 M146.024 104.210 C 146.442 104.592,144.709 105.553,143.583 105.563 C 142.243 105.575,141.592 104.389,142.593 103.760 C 143.321 103.303,145.317 103.565,146.024 104.210 M148.056 130.191 C 149.551 130.759,150.322 133.724,148.974 133.724 C 148.651 133.724,148.387 133.460,148.387 133.138 C 148.387 132.815,148.024 132.551,147.579 132.551 C 146.497 132.551,145.259 130.996,145.732 130.231 C 146.194 129.483,146.195 129.483,148.056 130.191 M72.141 145.782 C 72.141 146.634,71.887 147.126,71.554 146.921 C 71.232 146.721,70.968 146.046,70.968 145.420 C 70.968 144.794,71.232 144.282,71.554 144.282 C 71.877 144.282,72.141 144.957,72.141 145.782 M163.956 153.107 C 165.799 155.031,165.382 155.983,162.689 156.003 C 162.007 156.008,160.808 156.515,160.026 157.131 C 156.412 159.973,154.798 157.001,157.855 153.133 C 159.696 150.805,161.742 150.796,163.956 153.107 M153.964 160.126 C 154.591 161.140,153.704 162.844,152.188 163.535 C 151.388 163.899,150.733 164.590,150.733 165.069 C 150.733 165.549,150.139 166.253,149.413 166.634 C 148.688 167.015,147.894 167.663,147.650 168.075 C 147.407 168.487,146.351 169.004,145.304 169.226 C 144.258 169.447,142.548 170.146,141.505 170.780 C 137.319 173.322,135.457 171.231,138.967 167.929 C 140.276 166.697,141.347 165.351,141.348 164.937 C 141.350 163.647,143.834 163.066,145.319 164.007 C 146.511 164.763,146.696 164.742,147.091 163.804 C 148.727 159.921,152.568 157.866,153.964 160.126 M161.877 165.807 C 161.877 166.256,161.092 167.073,160.133 167.623 C 159.114 168.206,158.241 169.293,158.033 170.235 C 157.604 172.184,156.404 172.313,155.165 170.544 C 153.936 168.789,154.015 167.742,155.377 167.742 C 157.148 167.742,158.358 167.106,158.358 166.174 C 158.358 163.977,159.547 162.883,160.750 163.972 C 161.370 164.532,161.877 165.358,161.877 165.807 M128.913 182.187 C 133.191 183.431,139.245 186.776,140.396 188.533 C 143.017 192.533,144.860 196.753,145.199 199.528 C 145.408 201.239,145.924 203.703,146.346 205.003 C 148.094 210.393,148.056 211.398,146.017 213.721 C 143.986 216.034,142.781 216.113,140.469 214.086 C 139.824 213.520,138.504 212.871,137.537 212.643 C 136.550 212.410,134.747 211.086,133.431 209.627 C 131.325 207.293,130.485 206.852,125.220 205.316 C 118.552 203.371,116.572 201.681,113.157 195.015 C 108.946 186.794,112.119 183.159,125.130 181.302 C 125.403 181.264,127.105 181.662,128.913 182.187 M264.809 185.826 C 270.114 188.707,270.536 190.690,267.140 196.763 C 263.596 203.100,260.735 205.781,256.758 206.492 C 254.911 206.822,251.390 208.008,248.934 209.128 C 238.308 213.970,234.304 212.834,237.168 205.790 C 237.610 204.702,238.151 202.398,238.369 200.669 C 238.873 196.688,239.679 195.425,245.128 190.084 C 252.012 183.335,257.885 182.065,264.809 185.826 M31.322 210.467 C 30.749 215.471,30.590 215.836,28.982 215.836 C 27.767 215.836,27.555 215.622,27.850 214.692 C 28.050 214.063,27.780 212.711,27.251 211.688 C 26.297 209.843,26.304 209.813,28.160 208.118 C 30.674 205.822,31.760 206.630,31.322 210.467 M142.504 217.841 C 142.801 218.621,143.778 219.612,144.675 220.042 C 146.852 221.085,147.684 225.305,146.346 228.508 C 145.856 229.681,145.455 231.633,145.455 232.844 C 145.455 240.513,138.246 232.027,137.611 223.610 L 137.203 218.202 139.129 217.360 C 141.763 216.209,141.890 216.227,142.504 217.841 M25.269 218.475 C 25.276 218.798,24.857 219.150,24.337 219.258 C 22.963 219.543,21.564 218.878,22.012 218.152 C 22.485 217.387,25.251 217.661,25.269 218.475 M123.798 226.554 C 123.725 227.256,122.921 227.120,122.669 226.364 C 122.540 225.977,122.751 225.765,123.138 225.894 C 123.525 226.023,123.822 226.320,123.798 226.554 M129.032 231.680 C 129.032 232.006,128.722 232.771,128.343 233.378 C 127.788 234.267,127.845 234.673,128.636 235.465 C 129.752 236.581,129.855 237.441,129.025 238.710 C 128.549 239.436,128.094 239.181,126.416 237.243 C 124.535 235.071,123.766 232.441,124.731 231.476 C 125.356 230.851,129.032 231.025,129.032 231.680 M221.701 405.863 C 219.604 406.449,217.097 407.200,216.129 407.532 C 213.159 408.550,205.070 410.998,203.519 411.348 C 201.712 411.756,200.204 414.429,199.146 419.096 C 197.246 427.488,196.139 429.205,192.478 429.442 C 190.036 429.600,189.643 429.825,188.842 431.529 L 187.943 433.440 185.907 431.700 C 184.787 430.743,183.568 429.949,183.199 429.936 C 182.514 429.912,180.579 427.756,177.419 423.497 C 173.250 417.877,169.618 414.076,168.416 414.076 C 167.835 414.076,166.740 413.416,165.982 412.610 C 165.225 411.804,164.245 411.144,163.804 411.144 C 163.364 411.144,161.969 410.088,160.704 408.798 C 155.461 403.449,151.586 408.682,153.980 417.875 C 154.476 419.778,155.158 423.323,155.496 425.754 C 155.834 428.185,156.407 430.709,156.768 431.363 C 157.130 432.016,157.599 434.352,157.810 436.553 C 158.293 441.599,159.671 443.676,162.578 443.739 C 163.924 443.769,165.532 444.463,167.332 445.792 C 172.452 449.572,175.257 451.046,179.173 452.012 C 181.961 452.700,183.349 453.374,183.988 454.349 C 184.625 455.321,185.441 455.718,186.799 455.718 C 187.852 455.718,189.041 456.114,189.443 456.598 C 190.580 457.969,195.280 457.037,198.456 454.812 C 199.126 454.343,200.074 453.959,200.562 453.959 C 201.050 453.959,202.773 453.330,204.390 452.561 C 206.008 451.791,209.311 450.293,211.730 449.231 C 219.561 445.794,219.578 445.770,221.694 435.777 C 222.411 432.390,223.347 428.563,223.774 427.273 C 224.201 425.982,224.849 423.343,225.214 421.408 C 225.579 419.472,226.224 416.965,226.646 415.836 C 227.822 412.697,228.331 407.295,227.583 405.898 C 226.824 404.479,226.660 404.478,221.701 405.863 M167.745 419.360 C 168.279 420.359,168.157 420.622,166.943 421.084 C 166.155 421.383,165.334 421.913,165.119 422.261 C 164.531 423.213,163.636 422.394,163.636 420.904 C 163.636 418.269,166.571 417.166,167.745 419.360 M188.270 441.970 C 188.270 445.699,188.044 448.610,187.768 448.440 C 186.462 447.632,186.712 435.191,188.034 435.191 C 188.164 435.191,188.270 438.241,188.270 441.970 " stroke="none" fill="#000000" fill-rule="evenodd"></path></g></svg>