<?xml version="1.0" encoding="UTF-8"?>
<svg width="132px" height="32px" viewBox="0 0 132 32" version="1.1" xmlns="http://www.w3.org/2000/svg" xmlns:xlink="http://www.w3.org/1999/xlink">
    <!-- Generator: Sketch 52.6 (67491) - http://www.bohemiancoding.com/sketch -->
    <title>logo</title>
    <desc>Created with Sketch.</desc>
    <g id="Page-1" stroke="none" stroke-width="1" fill="none" fill-rule="evenodd">
        <g id="main" transform="translate(-100.000000, -56.000000)" fill="#FFFFFF">
            <path d="M199.850479,74.3517772 C198.940936,75.409296 197.727624,75.7866052 196.818081,75.7866052 C194.770992,75.7866052 193.482267,74.1250407 193.482267,71.558285 C193.482267,68.6886289 194.99829,67.4050756 196.96926,67.4050756 C197.879156,67.4050756 198.940936,67.5563503 199.850479,68.3113197 L199.850479,74.3517772 Z M206.294457,75.7866052 L206.294457,75.9378799 L204.778082,77.2214332 L205.005732,79.2596051 L204.853848,79.3354179 C203.337825,79.1090323 201.5938,78.5049866 200.760022,77.2214332 C199.167881,78.6562613 197.500327,79.4108797 195.680888,79.4108797 C191.283646,79.4108797 188.63043,76.0884526 188.63043,71.7850215 C188.63043,66.4991825 192.420487,63.7808011 195.83242,63.7808011 C197.424208,63.7808011 198.788699,64.1584613 199.850479,65.0643544 L200.608138,64.1584613 L204.62655,64.1584613 L204.62655,73.7477315 C204.62655,74.9561739 205.232678,75.5598687 206.294457,75.7866052 Z M128.965661,72.6907742 L128.965661,64.1579699 L133.665967,64.1579699 L133.665967,72.313465 C133.665967,76.692709 131.543112,79.4107393 126.388211,79.4107393 C121.15684,79.4107393 119.110103,77.0703692 119.110103,72.5398505 L119.110103,64.1579699 L123.886174,64.1579699 L123.886174,72.6907742 C123.886174,74.5029115 124.56842,75.7864648 126.388211,75.7864648 C128.20765,75.7864648 128.965661,74.5029115 128.965661,72.6907742 Z M153.301529,68.8398685 L153.301529,77.9760166 L156.409693,77.3723218 L156.409693,79.0335354 L147.84286,79.0335354 L147.84286,77.3723218 L150.572194,77.9760166 L150.572194,68.8398685 C150.572194,66.4991474 149.131585,65.5929032 147.691328,65.5929032 C146.251071,65.5929032 143.900566,66.3478727 142.460309,67.4050405 L142.460309,77.9760166 L144.961993,77.3723218 L144.961993,79.0335354 L136.622458,79.0335354 L136.622458,77.3723218 L139.730974,77.9760166 L139.730974,65.4419795 L136.622458,65.7441779 L136.622458,64.1580752 L141.701945,64.1580752 L142.460309,66.1214871 C144.582811,64.5357354 147.160614,63.780766 148.752755,63.780766 C151.179026,63.780766 153.301529,65.215594 153.301529,68.8398685 Z M186.583165,64.0072919 C187.644592,64.0072919 188.250719,64.5358758 188.250719,65.6685055 C188.250719,66.2725512 187.87189,66.876597 187.87189,66.876597 L186.203983,67.2542572 L186.203983,66.4234749 C186.203983,65.8194292 186.052451,65.4421199 185.521737,65.4421199 C183.171585,65.4421199 180.290718,70.5008715 179.153525,72.8419436 C177.182202,77.2211876 176.42419,79.0336758 176.272306,79.0336758 L173.467558,79.0336758 L179.684239,65.0648107 C179.760004,64.8380742 179.684239,64.7622614 179.381175,64.7622614 L177.8648,64.7622614 L177.8648,64.3846011 L182.413573,63.8563682 L182.640518,64.1582156 L180.897198,68.1601503 L181.04873,68.1601503 C183.095819,65.4421199 184.991023,64.0072919 186.583165,64.0072919 Z M100.6875,86.8107385 L103.416835,64.1581454 L108.723619,64.1581454 C113.196627,64.1581454 116.229025,67.3296488 116.077493,71.7092438 C115.925962,76.2397624 113.196627,79.335453 109.178567,79.335453 C107.737958,79.335453 106.676883,79.1841783 104.857092,78.2782852 L102.279641,86.8107385 L100.6875,86.8107385 Z M172.02709,66.121452 L172.02709,66.4991123 L164.59745,71.0296309 L172.25474,75.5601495 L172.330153,75.8619969 L170.434948,79.3353477 L170.207651,79.3353477 L162.778011,71.935524 L162.626479,79.0335003 L159.366431,79.0335003 L158.608067,56.0790598 L163.308725,56.0790598 L162.778011,70.3501233 L169.146223,63.4788835 L169.449639,63.4788835 L172.02709,66.121452 Z M227.521738,79.0335354 L223.731328,79.0335354 L223.427912,78.731337 L224.71699,66.196949 L220.168216,67.178655 L219.940566,66.9519184 L219.940566,63.3276439 L220.168216,63.1767202 L224.71699,64.3848117 L223.504031,59.0235108 L223.807094,58.7216635 L227.445972,58.7216635 L227.749388,59.0235108 L226.536429,64.3848117 L231.08485,63.1767202 L231.3125,63.3276439 L231.3125,66.9519184 L231.08485,67.178655 L226.536429,66.196949 L227.824802,78.731337 L227.521738,79.0335354 Z M219.819552,69.9013885 L213.879505,71.4523927 L213.879505,80.6654066 C213.879505,84.3268855 212.736674,87.3397436 209.324741,87.3397436 C208.422246,87.3397436 207.876379,87.1045834 207.353771,86.8108087 L207.353771,84.4700875 L207.732952,84.4700875 L209.324741,86.2818738 C211.140304,86.2818738 211.366544,83.1089664 211.366544,81.5498896 L211.366544,72.1080333 L208.364452,72.8921345 L208.138917,72.0350283 L211.366544,71.1926636 C211.366544,71.1926636 211.370421,64.8545705 211.37183,64.7752478 C211.428919,60.8694831 212.889968,58.4213604 215.874439,58.4213604 C217.021148,58.4213604 217.831666,58.7554985 217.831666,58.7554985 L217.799598,61.4493108 L217.666391,61.4493108 L215.860696,59.4939716 C214.502195,59.5508312 213.879505,61.1895817 213.879505,64.1568117 L213.879505,70.537023 L219.593664,69.0449843 L219.819552,69.9013885 Z" id="logo"></path>
        </g>
    </g>
</svg>